inDegrees=yes
name=ik_lifting_orientations
DataType=double
version=3
OpenSimVersion=4.5-2024-01-10-34fd6af
endheader
time	pelvis_tilt	pelvis_list	pelvis_rotation	pelvis_tx	pelvis_ty	pelvis_tz	hip_flexion_r	hip_adduction_r	hip_rotation_r	knee_angle_r	knee_angle_r_beta	ankle_angle_r	subtalar_angle_r	mtp_angle_r	hip_flexion_l	hip_adduction_l	hip_rotation_l	knee_angle_l	knee_angle_l_beta	ankle_angle_l	subtalar_angle_l	mtp_angle_l	lumbar_extension	lumbar_bending	lumbar_rotation	arm_flex_r	arm_add_r	arm_rot_r	elbow_flex_r	pro_sup_r	wrist_flex_r	wrist_dev_r	arm_flex_l	arm_add_l	arm_rot_l	elbow_flex_l	pro_sup_l	wrist_flex_l	wrist_dev_l
1.52	-0.02271268679175637	-0.0004472985588614569	-89.62830781414263	0	0.9399999998679526	0	45.89153218876609	-10.18394107448098	0	60.34763604977407	1.053264944863782	-5.003587300477651	0	0	45.89153218876609	-10.18394107448098	0	60.34763604977407	1.053264944863782	-5.003587300477651	0	0	-15.02338278515154	-2.221178383411217	-4.10795358967072	0.241000172258498	11.27772387937732	36.5344688028004	162.2996101030326	1.515606343119319	0	0	0	-11.68853977142362	0	88.53905649388504	1.515606343119319	0	0
1.53	0.9153990078787431	-0.1718327545199764	-90.29633603918913	0	0.9399999998679526	0	45.88793162592335	-10.18213093937805	0	60.34624716432325	1.053240704239732	-5.003544824548653	0	0	45.88793162592335	-10.18213093937805	0	60.34624716432325	1.053240704239732	-5.003544824548653	0	0	-14.83440496652378	-3.944538308164182	-4.470200247839822	1.510665249928011	12.70515599454026	37.62393558556811	162.1908280463446	1.510927970563711	0	0	0	-11.6966458399883	0	88.54356555660357	1.510927970563711	0	0
1.54	-0.1644119341926298	-0.9120276718630509	-89.91671214128401	0	0.9399999998679526	0	45.88747803434196	-10.18180563452014	0	60.34610853067703	1.053238284626152	-5.003536564815429	0	0	45.88747803434196	-10.18180563452014	0	60.34610853067703	1.053238284626152	-5.003536564815429	0	0	-15.58284400529881	-2.811647527622731	-4.558281362879746	3.175707334981649	14.49076224229145	37.90889610431996	159.8730814187776	1.510391043416107	0	0	0	-11.69750993235853	0	88.54408304778212	1.510391043416107	0	0
1.55	0.7349841643302066	-1.062128276415209	-90.54228104636039	0	0.9399999998679526	0	45.87081580905409	-10.1739000109617	0	60.33962638307178	1.05312514980784	-5.003355073912505	0	0	45.87081580905409	-10.1739000109617	0	60.33962638307178	1.05312514980784	-5.003355073912505	0	0	-14.23718930987866	-3.190005963343519	-4.040135398457664	3.763959729149232	14.59670075466416	37.47248434078326	154.9642474226702	1.488559390048192	0	0	0	-11.73554084082482	0	88.56512463027865	1.488559390048192	0	0
1.56	0.7526454946208819	-1.107111478581704	-90.53619922206417	0	0.9399999998679526	0	45.8705379011534	-10.17370652418557	0	60.33954123644718	1.053123663718893	-5.003350206692237	0	0	45.8705379011534	-10.17370652418557	0	60.33954123644718	1.053123663718893	-5.003350206692237	0	0	-14.59936736435442	-2.396750955396355	-4.663911601954281	2.756620212429675	12.96887830202989	39.78462330210392	156.6390861148222	1.488228635622916	0	0	0	-11.73607515517847	0	88.56544341212592	1.488228635622916	0	0
1.57	0.734050697484958	-1.070208623948623	-90.53641568840598	0	0.9399999998679526	0	45.86185975811547	-10.16947203692197	0	60.33621695683114	1.053065644094337	-5.003252028410864	0	0	45.86185975811547	-10.16947203692197	0	60.33621695683114	1.053065644094337	-5.003252028410864	0	0	-13.52249049265514	-2.651051844416652	-5.777751621357286	3.366509528364364	14.71556835443972	41.39680135310083	153.1239900399596	1.476910947427143	0	0	0	-11.75572718543071	0	88.57635151747905	1.476910947427143	0	0
1.58	0.2925887650264872	-2.609956815636473	-90.63713348165911	0	0.9399999998679526	0	45.84905285615969	-10.16351853432028	0	60.33125105680902	1.052978972788626	-5.003116151333454	0	0	45.84905285615969	-10.16351853432028	0	60.33125105680902	1.052978972788626	-5.003116151333454	0	0	-14.23915644895007	-1.960077390764129	-5.134199158639666	4.978067113413499	15.47755731523353	39.588528521107	148.6853778819539	1.460065147027134	0	0	0	-11.78515196867915	0	88.59258768637002	1.460065147027134	0	0
1.59	0.303440008236062	-2.605812550878302	-90.64242669918625	0	0.9399999998679526	0	45.83958256238157	-10.15909234538898	0	60.32761276285444	1.052915472579963	-5.003014996471401	0	0	45.83958256238157	-10.15909234538898	0	60.32761276285444	1.052915472579963	-5.003014996471401	0	0	-13.9369045697327	-2.797913741903004	-4.501014473212399	5.493205074280796	17.44773390133244	39.30778940370855	145.5405253365943	1.447624295998476	0	0	0	-11.80686062971972	0	88.60457831489521	1.447624295998476	0	0
1.6	0.2890462504319637	-2.605020615058258	-90.65416760566471	0	0.9399999998679526	0	45.83844289424126	-10.15834134609846	0	60.3272636945301	1.052909380188389	-5.002996464817219	0	0	45.83844289424126	-10.15834134609846	0	60.3272636945301	1.052909380188389	-5.002996464817219	0	0	-13.95288397033571	-2.799364700361002	-4.487803897047894	7.718431984693739	19.1319465224551	38.79443546955638	141.7985378208958	1.446256246312887	0	0	0	-11.8090828790804	0	88.60589684580286	1.446256246312887	0	0
1.61	0.1200943197907609	-3.49781204560407	-90.89650932491762	0	0.9399999998679526	0	45.81264932390901	-10.14734309751457	0	60.31717469880235	1.05273329399472	-5.00275317857626	0	0	45.81264932390901	-10.14734309751457	0	60.31717469880235	1.05273329399472	-5.00275317857626	0	0	-14.82190845861314	-2.691334829256742	-4.219279143790104	9.586797631589702	21.01731171468368	38.20305176283764	137.2945638685085	1.411875888145028	0	0	0	-11.8696594488111	0	88.63903304865434	1.411875888145028	0	0
1.62	1.002953976550879	-3.671723532615549	-91.49203768621109	0	0.9399999998679526	0	45.8119232026725	-10.14688554743371	0	60.31695215937595	1.052729409949014	-5.002742047912605	0	0	45.8119232026725	-10.14688554743371	0	60.31695215937595	1.052729409949014	-5.002742047912605	0	0	-13.46931528150033	-3.018468338472419	-3.695902195311819	9.471153870052412	21.27977115497533	38.06412231207959	134.5732038480193	1.4109974851594	0	0	0	-11.87109378655078	0	88.63987965729491	1.4109974851594	0	0
1.63	1.006203823752367	-3.677475293902694	-91.50088884510849	0	0.9399999998679526	0	45.81151408590833	-10.1466272575987	0	60.3168268005659	1.052727222025032	-5.002735759984299	0	0	45.81151408590833	-10.1466272575987	0	60.3168268005659	1.052727222025032	-5.002735759984299	0	0	-13.49762028478311	-3.038073187799792	-3.677866094484612	12.13799714162403	22.039751085145	37.05345137295448	130.7712210643184	1.410502616672273	0	0	0	-11.87190189209413	0	88.64035661371155	1.410502616672273	0	0
1.64	-0.1309321397652298	-4.16710634440659	-90.76134053543318	0	0.9399999998679526	0	45.81012306664996	-10.14575832656889	0	60.31639916058324	1.052719758299322	-5.002714683625734	0	0	45.81012306664996	-10.14575832656889	0	60.31639916058324	1.052719758299322	-5.002714683625734	0	0	-14.67970072595689	-2.109772714210104	-3.850542301236553	15.01790292880851	25.13046626773755	35.5183025713163	125.9585915758412	1.408817076198666	0	0	0	-11.87465760977043	0	88.64198114524642	1.408817076198666	0	0
1.65	-0.1356418172666523	-4.152725999466959	-90.75776294173862	0	0.9399999998679526	0	45.80962407769599	-10.14544481115707	0	60.31624627927856	1.05271709001719	-5.002707068124137	0	0	45.80962407769599	-10.14544481115707	0	60.31624627927856	1.05271709001719	-5.002707068124137	0	0	-14.67516264271775	-2.106668319114465	-3.861507278212319	17.66430480821578	26.5652029920885	35.13376571239592	121.7853851501308	1.408213219852074	0	0	0	-11.87564391227037	0	88.64256314467261	1.408213219852074	0	0
1.66	0.7501497017670722	-4.343823325928713	-91.3652097090539	0	0.9399999998679526	0	45.80841998047646	-10.14469543170279	0	60.31587644044308	1.052710635111809	-5.002688927261309	0	0	45.80841998047646	-10.14469543170279	0	60.31587644044308	1.052710635111809	-5.002688927261309	0	0	-15.2000386511656	-2.487536739437568	-2.674614931394076	20.74966422974265	27.28096831374423	33.38611435167506	117.7330802623058	1.406753994219664	0	0	0	-11.87802947759985	0	88.64396955297505	1.406753994219664	0	0
1.67	0.7513258160523451	-4.3563823283056	-91.35546692413722	0	0.9399999998679526	0	45.7810267733952	-10.13360451746392	0	60.30511820814977	1.052522868536597	-5.002447592884899	0	0	45.7810267733952	-10.13360451746392	0	60.30511820814977	1.052522868536597	-5.002447592884899	0	0	-15.20854572716382	-2.495026205455289	-2.66759323577536	22.61174729449649	28.38625815232269	32.12933058113061	113.1579297559402	1.369905860555459	0	0	0	-11.94336197934279	0	88.67948425069613	1.369905860555459	0	0
1.68	0.5581731343690358	-5.216597138595911	-91.61491528450802	0	0.9399999998679526	0	45.77992460522109	-10.13294922705154	0	60.30478013295171	1.052516968011271	-5.002431963990293	0	0	45.77992460522109	-10.13294922705154	0	60.30478013295171	1.052516968011271	-5.002431963990293	0	0	-16.07104641930734	-2.38446677860513	-2.404985005782091	25.51657598639221	29.5290666296215	30.89957935045061	108.9135515912933	1.368559811814156	0	0	0	-11.9455738866363	0	88.68078157990476	1.368559811814156	0	0
1.69	0.5586639525303618	-5.219119213476559	-91.60824703497059	0	0.9399999998679526	0	45.77025386016977	-10.12904404227687	0	60.30100822752014	1.052451135842416	-5.002346800848422	0	0	45.77025386016977	-10.12904404227687	0	60.30100822752014	1.052451135842416	-5.002346800848422	0	0	-17.52652234568082	-3.086179162188668	-2.545603294326162	28.72220681281626	31.47985972460998	29.70961936528951	104.2019571326763	1.355525619306413	0	0	0	-11.96872033958148	0	88.69334410139835	1.355525619306413	0	0
